<svg width="101" height="46" viewBox="0 0 101 46" fill="none" xmlns="http://www.w3.org/2000/svg">
<g filter="url(#filter0_d_356_3924)">
<rect x="1" y="0.609741" width="86.0657" height="42.746" rx="21.373" fill="white"/>
</g>
<path d="M24.4131 23.5671C24.4361 23.6818 24.459 23.8195 24.459 23.9802V25.4032C24.459 25.5753 24.4361 25.713 24.4131 25.8277C24.3902 25.9425 24.3557 25.9999 24.3213 25.9999H24.0574C23.2541 25.9999 22.7607 25.7245 22.5541 25.1622L22.4967 25.3573C22.4049 25.5982 22.2902 25.7474 22.1525 25.7933C21.9 25.8966 21.6016 25.9769 21.2459 26.0458C20.8787 26.1146 20.5459 26.1491 20.2475 26.1491C19.4672 26.1491 18.882 25.9999 18.4918 25.6786C18.0902 25.3573 17.8951 24.8064 17.8951 24.0261C17.8951 23.7966 17.918 23.4409 17.9754 22.9704L19.559 23.0392V23.3491C19.559 23.4179 19.5705 23.4753 19.6164 23.4982C19.6623 23.5212 19.7541 23.5441 19.8918 23.5441C20.0295 23.5556 20.2131 23.5556 20.4426 23.5556C20.8213 23.5556 21.2 23.5212 21.5902 23.4409L20.6951 20.1818L22.5885 19.1835L23.3344 22.7753C23.3803 22.9933 23.4262 23.1425 23.4836 23.2228C23.541 23.3032 23.6213 23.3491 23.7361 23.372C23.8394 23.395 24.0344 23.395 24.3213 23.395C24.3557 23.395 24.3902 23.4523 24.4131 23.5671ZM31.6277 23.5671C31.6506 23.6818 31.6736 23.8195 31.6736 23.9802V25.4032C31.6736 25.5753 31.6506 25.713 31.6277 25.8277C31.6047 25.9425 31.5703 25.9999 31.5359 25.9999H29.1949C28.9195 25.9999 28.6785 25.9655 28.4719 25.8851C28.2654 25.8163 28.0818 25.6556 27.9211 25.4032C27.7375 25.6327 27.5309 25.7933 27.29 25.8736C27.0375 25.9655 26.7621 25.9999 26.4523 25.9999H24.3178C24.2719 25.9999 24.2375 25.9425 24.2145 25.8277C24.1916 25.713 24.1801 25.5753 24.1801 25.4032V23.9802C24.1801 23.8195 24.1916 23.6818 24.2145 23.5671C24.2375 23.4523 24.2719 23.395 24.3178 23.395H25.8441C25.9473 23.395 26.0277 23.4064 26.0736 23.4179L25.6949 22.6491C25.6031 22.4654 25.5342 22.3507 25.5113 22.3163C25.4768 22.2818 25.4424 22.2589 25.4195 22.2589L25.0408 22.2474L25.1096 20.1704C26.7047 20.0327 27.8408 19.9638 28.5293 19.9638C29.1604 19.9638 29.6424 20.0212 29.9752 20.1245C30.2965 20.2277 30.526 20.3884 30.6523 20.6064C30.7785 20.8245 30.8473 21.1228 30.8473 21.513V22.0638C30.8473 22.19 30.7785 22.3851 30.6637 22.6605C30.5375 22.9359 30.3998 23.1999 30.2391 23.4409C30.3309 23.4179 30.526 23.395 30.8014 23.395H31.5359C31.5703 23.395 31.6047 23.4523 31.6277 23.5671ZM28.6441 22.9015C28.8736 22.6032 29.0227 22.3507 29.0916 22.1327C28.9654 22.0982 28.69 22.0753 28.2539 22.0753C27.7719 22.0753 27.3818 22.0982 27.1063 22.1212C27.1523 22.1671 27.1982 22.2359 27.2555 22.3277C27.3129 22.4195 27.3818 22.5343 27.4506 22.6605L27.9785 23.59C28.185 23.4294 28.4145 23.1999 28.6441 22.9015ZM35.184 22.2359C35.2069 22.6605 35.2184 23.131 35.2184 23.6359C35.2184 24.4048 34.943 24.99 34.4036 25.3917C33.8299 25.8048 32.8659 25.9999 31.5348 25.9999C31.4889 25.9999 31.4545 25.9425 31.4315 25.8277C31.4086 25.713 31.3971 25.5753 31.3971 25.4032V23.9802C31.3971 23.8195 31.4086 23.6818 31.4315 23.5671C31.4545 23.4523 31.4889 23.395 31.5348 23.395C32.0397 23.395 32.4413 23.3835 32.7168 23.3605C32.9922 23.3376 33.2217 23.2917 33.4053 23.2228L33.0954 20.8589L35.0577 20.5146C35.1151 21.2491 35.161 21.8228 35.184 22.2359ZM32.4069 27.3196L33.9561 28.6163L32.6594 30.1655L31.1102 28.8687L32.4069 27.3196ZM44.4779 23.5671C44.5008 23.6818 44.5238 23.8195 44.5238 23.9802V25.4032C44.5238 25.5753 44.5008 25.713 44.4779 25.8277C44.4549 25.9425 44.4205 25.9999 44.3861 25.9999H43.9156C43.3877 25.9999 42.9746 25.8966 42.6877 25.69C42.4008 25.4835 42.2058 25.1851 42.091 24.772L42.0566 24.8523C41.9533 25.0933 41.7926 25.231 41.5631 25.2769C41.2648 25.3458 40.8172 25.3802 40.2205 25.3802C39.7271 25.3802 39.3369 25.254 39.0615 24.9786C38.7861 24.7146 38.6484 24.3359 38.6484 23.8425C38.6484 23.1769 38.6943 22.6605 38.809 22.2933C38.9238 21.9376 39.1418 21.6163 39.4746 21.3179C39.7959 21.0195 40.3467 20.6638 41.1041 20.2277L41.0123 19.3556L42.8484 18.7933L43.2156 22.431C43.2386 22.7179 43.273 22.9245 43.3074 23.0392C43.3418 23.154 43.4107 23.2458 43.514 23.3032C43.6058 23.372 43.7664 23.395 43.9845 23.395H44.3861C44.4205 23.395 44.4549 23.4523 44.4779 23.5671ZM41.0926 23.1425C41.2992 23.1195 41.4943 23.0851 41.6549 23.0277L41.5172 22.0409C41.0353 22.2359 40.7025 22.4195 40.5189 22.5802C40.3353 22.7523 40.209 22.9359 40.1517 23.131L40.4959 23.1654C40.6795 23.1769 40.8861 23.1654 41.0926 23.1425ZM53.3394 23.5671C53.3624 23.6818 53.3853 23.8195 53.3853 23.9802V25.4032C53.3853 25.5753 53.3624 25.713 53.3394 25.8277C53.3165 25.9425 53.2821 25.9999 53.2476 25.9999H51.5148C51.0099 25.9999 50.505 25.931 50.0116 25.7933C49.5181 25.6556 49.1739 25.3917 48.9788 25.013C48.382 25.3573 47.7624 25.5982 47.1427 25.7589C46.5116 25.9195 45.7427 25.9999 44.8361 25.9999H44.3886C44.3427 25.9999 44.3083 25.9425 44.2853 25.8277C44.2624 25.713 44.2509 25.5753 44.2509 25.4032V23.9802C44.2509 23.8195 44.2624 23.6818 44.2853 23.5671C44.3083 23.4523 44.3427 23.395 44.3886 23.395H44.8361C45.7427 23.395 46.6952 23.3146 47.6935 23.131C47.9689 23.0851 48.3591 22.9589 48.864 22.7753C49.0935 22.6835 49.3001 22.6146 49.4607 22.5687C49.5066 22.5573 49.5411 22.5458 49.5755 22.5458L49.5411 22.5343C49.4148 22.5113 49.0476 22.4081 48.4509 22.213C47.8657 22.0179 47.4525 21.9146 47.223 21.9146C47.0394 21.9146 46.9017 21.972 46.8099 22.0753C46.7181 22.1786 46.6493 22.3392 46.5919 22.5458L45.0771 22.2474C45.3411 20.6409 46.0181 19.8376 47.1083 19.8376C47.4411 19.8376 47.7624 19.8835 48.0837 19.9753C48.3935 20.0671 48.8181 20.2163 49.3575 20.4113C49.9771 20.6409 50.528 20.813 51.0099 20.9277C51.4919 21.054 52.0198 21.1113 52.5821 21.1113L52.1116 23.1884C51.8591 23.2343 51.5607 23.3376 51.2394 23.5212C51.6984 23.4409 52.1689 23.395 52.6739 23.395H53.2476C53.2821 23.395 53.3165 23.4523 53.3394 23.5671ZM56.6955 18.8048L55.1349 17.5081L56.4316 15.9589L57.9808 17.2556L56.6955 18.8048ZM59.4037 23.5671C59.4267 23.6818 59.4496 23.8195 59.4496 23.9802V25.4032C59.4496 25.5753 59.4267 25.713 59.4037 25.8277C59.3808 25.9425 59.3464 25.9999 59.3119 25.9999H58.0611C57.6365 25.9999 57.2808 25.9655 56.9939 25.8736C56.6955 25.7933 56.4431 25.6212 56.2365 25.3687C55.9726 25.6327 55.6857 25.8048 55.3759 25.8851C55.066 25.9655 54.6873 25.9999 54.2283 25.9999H53.2529C53.207 25.9999 53.1726 25.9425 53.1496 25.8277C53.1267 25.713 53.1152 25.5753 53.1152 25.4032V23.9802C53.1152 23.8195 53.1267 23.6818 53.1496 23.5671C53.1726 23.4523 53.207 23.395 53.2529 23.395H53.4365H53.7923C53.9414 23.395 54.0677 23.4064 54.1709 23.4294C54.0103 23.2802 53.9414 23.1081 53.9414 22.913C53.9414 22.454 54.0791 21.972 54.3546 21.4671C54.63 20.9622 54.9628 20.5491 55.3529 20.2048C55.7431 19.8605 56.0988 19.6884 56.4087 19.6884C56.7873 19.6884 57.1546 19.8376 57.4988 20.1359C57.8431 20.4343 58.1185 20.8359 58.3251 21.3294C58.5316 21.8228 58.6464 22.3392 58.6464 22.89C58.6464 23.0048 58.6234 23.0966 58.6005 23.1769C58.5775 23.2687 58.5201 23.3605 58.4513 23.4523C58.5316 23.4294 58.6119 23.4179 58.7037 23.4064C58.7841 23.4064 58.8759 23.395 58.9906 23.395H59.3119C59.3464 23.395 59.3808 23.4523 59.4037 23.5671ZM57.0169 22.9015C56.971 22.6146 56.8791 22.3736 56.7529 22.1671C56.6267 21.9605 56.5005 21.8573 56.3742 21.8573C56.2824 21.8573 56.1677 21.9261 56.03 22.0409C55.8923 22.1556 55.766 22.2933 55.6628 22.4425C55.548 22.6032 55.5021 22.7179 55.5021 22.7982C55.5021 22.8556 55.548 22.9474 55.6628 23.0622C55.7775 23.1884 55.9152 23.3146 56.0873 23.4523L57.0169 22.9015ZM68.7828 20.7671C69.2189 21.3409 69.4369 22.1671 69.4369 23.2228C69.4369 23.7392 69.2648 24.1982 68.9435 24.6114C68.5992 25.0818 68.0828 25.4376 67.4058 25.6786C66.7287 25.9195 65.9255 26.0343 64.9959 26.0343C64.1812 26.0343 63.5156 25.9769 63.0107 25.8507C62.5058 25.7359 62.0812 25.5179 61.7599 25.2195C61.4959 25.5064 61.1402 25.713 60.7041 25.8277C60.2566 25.9425 59.7976 25.9999 59.3156 25.9999C59.2697 25.9999 59.2353 25.9425 59.2123 25.8277C59.1894 25.713 59.1779 25.5753 59.1779 25.4032V23.9802C59.1779 23.8195 59.1894 23.6818 59.2123 23.5671C59.2353 23.4523 59.2697 23.395 59.3156 23.395C59.9812 23.395 60.4632 23.3376 60.7386 23.2228L60.6582 21.3294L62.4369 21.2146L62.4599 23.154C62.5402 23.1999 62.655 23.2343 62.8041 23.2458C63.0796 22.7638 63.4238 22.2589 63.8369 21.754C64.25 21.2491 64.7205 20.813 65.2714 20.4458C65.8222 20.0786 66.3845 19.895 66.9812 19.895C67.75 19.895 68.3468 20.1933 68.7828 20.7671ZM67.4632 22.2704C67.291 22.0753 67.073 21.972 66.8205 21.972C66.4878 21.972 66.1205 22.1097 65.7074 22.3736C65.2943 22.6376 64.9041 22.9933 64.5369 23.4523H65.0648C65.9255 23.4523 66.7976 23.3605 67.6927 23.154C67.7156 22.7638 67.6353 22.4654 67.4632 22.2704Z" fill="#0F3C6C"/>
<path d="M80.4653 41.7396C82.4144 40.6727 84.1855 39.109 85.6773 37.1376C87.1691 35.1663 88.3525 32.826 89.1599 30.2503C89.9673 27.6746 90.3828 24.914 90.3828 22.1261C90.3828 19.3382 89.9673 16.5776 89.1599 14.0019C88.3525 11.4262 87.1691 9.0859 85.6773 7.11456C84.1855 5.14321 82.4144 3.57946 80.4653 2.51257" stroke="white" stroke-width="0.860657" stroke-linecap="round"/>
<path opacity="0.6" d="M86.2074 41.7396C88.1566 40.6727 89.9277 39.109 91.4195 37.1376C92.9113 35.1663 94.0947 32.826 94.9021 30.2503C95.7095 27.6746 96.125 24.914 96.125 22.1261C96.125 19.3382 95.7095 16.5776 94.9021 14.0019C94.0947 11.4262 92.9113 9.0859 91.4195 7.11456C89.9277 5.14321 88.1566 3.57946 86.2074 2.51257" stroke="white" stroke-width="0.860657" stroke-linecap="round"/>
<path opacity="0.1" d="M91.0824 41.7396C93.0316 40.6727 94.8027 39.109 96.2945 37.1376C97.7863 35.1663 98.9697 32.826 99.7771 30.2503C100.584 27.6746 101 24.914 101 22.1261C101 19.3382 100.584 16.5776 99.7771 14.0019C98.9697 11.4262 97.7863 9.0859 96.2945 7.11456C94.8027 5.14321 93.0316 3.57946 91.0824 2.51257" stroke="white" stroke-width="0.860657" stroke-linecap="round"/>
<defs>
<filter id="filter0_d_356_3924" x="0.139343" y="0.322856" width="88.9345" height="45.6148" filterUnits="userSpaceOnUse" color-interpolation-filters="sRGB">
<feFlood flood-opacity="0" result="BackgroundImageFix"/>
<feColorMatrix in="SourceAlpha" type="matrix" values="0 0 0 0 0 0 0 0 0 0 0 0 0 0 0 0 0 0 127 0" result="hardAlpha"/>
<feMorphology radius="0.573771" operator="dilate" in="SourceAlpha" result="effect1_dropShadow_356_3924"/>
<feOffset dx="0.573771" dy="1.14754"/>
<feGaussianBlur stdDeviation="0.430328"/>
<feComposite in2="hardAlpha" operator="out"/>
<feColorMatrix type="matrix" values="0 0 0 0 0 0 0 0 0 0 0 0 0 0 0 0 0 0 0.25 0"/>
<feBlend mode="normal" in2="BackgroundImageFix" result="effect1_dropShadow_356_3924"/>
<feBlend mode="normal" in="SourceGraphic" in2="effect1_dropShadow_356_3924" result="shape"/>
</filter>
</defs>
</svg>
