<svg width="102" height="47" viewBox="0 0 102 47" fill="none" xmlns="http://www.w3.org/2000/svg">
<g filter="url(#filter0_d_356_3918)">
<rect width="86.0658" height="42.746" rx="21.373" transform="matrix(-1 0 0 1 100 0.71228)" fill="white"/>
</g>
<path d="M20.5309 41.8424C18.5817 40.7755 16.8106 39.2117 15.3188 37.2404C13.827 35.269 12.6436 32.9287 11.8362 30.353C11.0288 27.7773 10.6133 25.0167 10.6133 22.2288C10.6133 19.4409 11.0288 16.6803 11.8362 14.1046C12.6436 11.5289 13.827 9.18858 15.3188 7.21723C16.8106 5.24588 18.5817 3.68212 20.5309 2.61523" stroke="white" stroke-width="0.856525" stroke-linecap="round"/>
<path opacity="0.6" d="M14.7965 41.8424C12.8473 40.7755 11.0763 39.2117 9.58442 37.2404C8.09259 35.269 6.9092 32.9287 6.10183 30.353C5.29446 27.7773 4.87891 25.0167 4.87891 22.2288C4.87891 19.4409 5.29446 16.6803 6.10183 14.1046C6.9092 11.5289 8.09259 9.18858 9.58442 7.21723C11.0763 5.24588 12.8473 3.68212 14.7965 2.61523" stroke="white" stroke-width="0.856525" stroke-linecap="round"/>
<path opacity="0.1" d="M9.91758 41.8424C7.9684 40.7755 6.19734 39.2117 4.70551 37.2404C3.21368 35.269 2.0303 32.9287 1.22292 30.353C0.41555 27.7773 8.86979e-07 25.0167 8.57336e-07 22.2288C8.27694e-07 19.4409 0.41555 16.6803 1.22292 14.1046C2.0303 11.5289 3.21368 9.18858 4.70551 7.21723C6.19734 5.24588 7.96841 3.68212 9.91758 2.61523" stroke="white" stroke-width="0.856525" stroke-linecap="round"/>
<path d="M39.7977 23.7748C39.8205 23.889 39.8434 24.0261 39.8434 24.1859V25.6021C39.8434 25.7734 39.8205 25.9104 39.7977 26.0246C39.7748 26.1388 39.7406 26.1959 39.7063 26.1959H39.4893C39.2381 26.1959 39.0325 26.1617 38.8612 26.0817C38.6899 26.0132 38.5414 25.8876 38.4272 25.7277L38.4729 26.7213C38.4843 27.2694 38.2788 27.7148 37.8676 28.046C37.4451 28.3886 36.9426 28.617 36.3602 28.7541C35.7663 28.8911 35.2181 28.9596 34.6928 28.9596C33.5051 28.9596 32.66 28.7541 32.1346 28.3201C31.6093 27.8976 31.358 27.2809 31.358 26.4586C31.358 25.7048 31.5522 24.3001 31.9633 22.2216L33.5393 22.5414C33.2424 24.2545 33.0939 25.3051 33.0939 25.7163C33.0939 25.9904 33.2196 26.1731 33.4822 26.253C33.7449 26.333 34.1332 26.3672 34.6471 26.3672C35.0697 26.3672 35.4351 26.3558 35.7435 26.3101C36.0404 26.2759 36.3716 26.2188 36.7256 26.1274L36.0746 17.5736L38.0389 17.2081L38.313 23.2495C38.3359 23.4094 38.4158 23.5007 38.53 23.5464C38.6442 23.5921 38.8384 23.6035 39.1125 23.6035H39.7063C39.7406 23.6035 39.7748 23.6606 39.7977 23.7748ZM44.6451 23.7748C44.6679 23.889 44.6908 24.0261 44.6908 24.1859V25.6021C44.6908 25.7734 44.6679 25.9104 44.6451 26.0246C44.6222 26.1388 44.588 26.1959 44.5537 26.1959C43.8342 26.1959 43.2975 26.1388 42.9549 26.0246C42.6008 25.9104 42.361 25.6934 42.2354 25.3851C42.1212 25.6135 41.9727 25.7848 41.79 25.899C41.6073 26.0132 41.356 26.0931 41.0362 26.1388C40.7165 26.1845 40.2711 26.1959 39.7115 26.1959C39.6658 26.1959 39.6315 26.1388 39.6087 26.0246C39.5859 25.9104 39.5744 25.7734 39.5744 25.6021V24.1859C39.5744 24.0261 39.5859 23.889 39.6087 23.7748C39.6315 23.6606 39.6658 23.6035 39.7115 23.6035C40.1455 23.6035 40.5109 23.5921 40.785 23.5692C41.0591 23.5464 41.2761 23.5121 41.4588 23.4436L41.1847 21.4793L43.1262 21.2623L43.1833 23.4893C43.3203 23.535 43.4802 23.5692 43.6743 23.5807C43.8571 23.6035 44.154 23.6035 44.5537 23.6035C44.588 23.6035 44.6222 23.6606 44.6451 23.7748ZM41.2989 27.5093L42.8521 28.7998L41.5616 30.3415L40.0198 29.051L41.2989 27.5093ZM46.1963 16.9569L44.803 15.7806L45.9679 14.3759L47.3041 15.4951L48.3205 14.2845L49.7137 15.4608L48.5374 16.8427L47.2127 15.7349L46.1963 16.9569ZM48.6631 18.373C49.0285 18.6471 49.314 19.0468 49.531 19.595C49.748 20.1431 49.8622 20.7941 49.8622 21.5707C49.8622 22.4158 49.8279 23.101 49.7708 23.6378C49.7023 24.1859 49.5881 24.6313 49.4282 24.9968C49.2684 25.3622 49.0285 25.6249 48.7316 25.7962C48.4689 25.9561 48.1606 26.0703 47.8065 26.116C47.4525 26.1731 46.9843 26.1959 46.3904 26.1959H44.5518C44.5061 26.1959 44.4718 26.1388 44.449 26.0246C44.4261 25.9104 44.4147 25.7734 44.4147 25.6021V24.1859C44.4147 24.0261 44.4261 23.889 44.449 23.7748C44.4718 23.6606 44.5061 23.6035 44.5518 23.6035C45.374 23.6035 46.0935 23.6035 46.733 23.5921C47.3612 23.5921 47.8294 23.5692 48.1377 23.535C48.1377 23.5007 48.1492 23.4208 48.1492 23.2952L48.1606 23.0553C47.8522 23.1124 47.4982 23.1353 47.1099 23.1353C46.6645 23.1353 46.2762 23.0782 45.9565 22.964C45.8422 22.9297 45.7395 22.8612 45.6709 22.7698C45.591 22.6785 45.4882 22.5186 45.3626 22.2787C45.237 22.0618 45.157 21.9019 45.1228 21.7877C45.0771 21.6735 45.0657 21.5478 45.0657 21.4108C45.1113 20.3601 45.3398 19.5264 45.7509 18.8983C46.162 18.2816 46.7445 17.9619 47.4868 17.9619C47.9093 17.9619 48.2976 18.0989 48.6631 18.373ZM47.4982 21.091C47.7038 21.091 47.9322 21.091 48.1834 21.0682C48.1834 20.7142 48.1035 20.4401 47.9664 20.2459C47.8294 20.0632 47.6467 19.9604 47.4183 19.9604C47.2127 19.9604 47.0528 20.0632 46.9386 20.2459C46.813 20.4287 46.733 20.7027 46.7102 21.0682C46.9843 21.091 47.247 21.091 47.4982 21.091ZM58.6818 23.7748C58.7047 23.889 58.7275 24.0261 58.7275 24.1859V25.6021C58.7275 25.7734 58.7047 25.9104 58.6818 26.0246C58.659 26.1388 58.6247 26.1959 58.5905 26.1959H58.1222C57.5969 26.1959 57.1858 26.0931 56.9003 25.8876C56.6148 25.682 56.4206 25.3851 56.3064 24.9739L56.2721 25.0539C56.1694 25.2937 56.0095 25.4308 55.7811 25.4764C55.4841 25.545 55.0387 25.5792 54.4449 25.5792C53.9538 25.5792 53.5655 25.4536 53.2914 25.1795C53.0173 24.9168 52.8803 24.54 52.8803 24.0489C52.8803 23.3865 52.926 22.8726 53.0402 22.5072C53.1544 22.1531 53.3714 21.8334 53.7026 21.5364C54.0223 21.2395 54.5705 20.8855 55.3243 20.4515L55.2329 19.5835L57.0601 19.0239L57.4256 22.6442C57.4484 22.9297 57.4827 23.1353 57.517 23.2495C57.5512 23.3637 57.6197 23.455 57.7225 23.5121C57.8139 23.5807 57.9738 23.6035 58.1908 23.6035H58.5905C58.6247 23.6035 58.659 23.6606 58.6818 23.7748ZM55.3128 23.3523C55.5184 23.3294 55.7125 23.2952 55.8724 23.2381L55.7354 22.2559C55.2557 22.4501 54.9245 22.6328 54.7418 22.7927C54.5591 22.964 54.4335 23.1467 54.3764 23.3408L54.719 23.3751C54.9017 23.3865 55.1073 23.3751 55.3128 23.3523ZM67.5008 23.7748C67.5237 23.889 67.5465 24.0261 67.5465 24.1859V25.6021C67.5465 25.7734 67.5237 25.9104 67.5008 26.0246C67.478 26.1388 67.4437 26.1959 67.4095 26.1959H65.685C65.1825 26.1959 64.68 26.1274 64.1889 25.9904C63.6979 25.8533 63.3553 25.5906 63.1611 25.2138C62.5672 25.5564 61.9506 25.7962 61.3339 25.9561C60.7057 26.116 59.9406 26.1959 59.0384 26.1959H58.593C58.5473 26.1959 58.513 26.1388 58.4902 26.0246C58.4673 25.9104 58.4559 25.7734 58.4559 25.6021V24.1859C58.4559 24.0261 58.4673 23.889 58.4902 23.7748C58.513 23.6606 58.5473 23.6035 58.593 23.6035H59.0384C59.9406 23.6035 60.8885 23.5236 61.882 23.3408C62.1561 23.2952 62.5444 23.1695 63.0469 22.9868C63.2753 22.8954 63.4809 22.8269 63.6408 22.7812C63.6864 22.7698 63.7207 22.7584 63.755 22.7584L63.7207 22.747C63.5951 22.7241 63.2296 22.6214 62.6358 22.4272C62.0533 22.2331 61.6422 22.1303 61.4138 22.1303C61.2311 22.1303 61.094 22.1874 61.0027 22.2902C60.9113 22.3929 60.8428 22.5528 60.7857 22.7584L59.2782 22.4615C59.5409 20.8626 60.2147 20.0632 61.2996 20.0632C61.6308 20.0632 61.9506 20.1089 62.2703 20.2002C62.5787 20.2916 63.0012 20.4401 63.538 20.6342C64.1547 20.8626 64.7029 21.0339 65.1825 21.1481C65.6622 21.2738 66.1875 21.3309 66.7471 21.3309L66.2789 23.3979C66.0276 23.4436 65.7307 23.5464 65.4109 23.7291C65.8677 23.6492 66.336 23.6035 66.8385 23.6035H67.4095C67.4437 23.6035 67.478 23.6606 67.5008 23.7748ZM70.8408 19.0354L69.2877 17.7449L70.5782 16.2031L72.1199 17.4936L70.8408 19.0354ZM73.536 23.7748C73.5589 23.889 73.5817 24.0261 73.5817 24.1859V25.6021C73.5817 25.7734 73.5589 25.9104 73.536 26.0246C73.5132 26.1388 73.4789 26.1959 73.4447 26.1959H72.1999C71.7773 26.1959 71.4233 26.1617 71.1378 26.0703C70.8408 25.9904 70.5896 25.8191 70.384 25.5678C70.1214 25.8305 69.8359 26.0018 69.5275 26.0817C69.2192 26.1617 68.8423 26.1959 68.3855 26.1959H67.4147C67.3691 26.1959 67.3348 26.1388 67.312 26.0246C67.2891 25.9104 67.2777 25.7734 67.2777 25.6021V24.1859C67.2777 24.0261 67.2891 23.889 67.312 23.7748C67.3348 23.6606 67.3691 23.6035 67.4147 23.6035H67.5975H67.9515C68.1 23.6035 68.2256 23.6149 68.3284 23.6378C68.1685 23.4893 68.1 23.318 68.1 23.1239C68.1 22.667 68.237 22.1874 68.5111 21.6849C68.7852 21.1824 69.1164 20.7713 69.5047 20.4287C69.893 20.086 70.247 19.9147 70.5553 19.9147C70.9322 19.9147 71.2977 20.0632 71.6403 20.3601C71.9829 20.6571 72.257 21.0568 72.4625 21.5478C72.6681 22.0389 72.7823 22.5528 72.7823 23.101C72.7823 23.2152 72.7595 23.3066 72.7366 23.3865C72.7138 23.4779 72.6567 23.5692 72.5882 23.6606C72.6681 23.6378 72.748 23.6263 72.8394 23.6149C72.9193 23.6149 73.0107 23.6035 73.1249 23.6035H73.4447C73.4789 23.6035 73.5132 23.6606 73.536 23.7748ZM71.1606 23.1124C71.1149 22.8269 71.0236 22.5871 70.8979 22.3815C70.7723 22.176 70.6467 22.0732 70.5211 22.0732C70.4297 22.0732 70.3155 22.1417 70.1785 22.2559C70.0414 22.3701 69.9158 22.5072 69.813 22.6556C69.6988 22.8155 69.6531 22.9297 69.6531 23.0096C69.6531 23.0667 69.6988 23.1581 69.813 23.2723C69.9272 23.3979 70.0643 23.5236 70.2356 23.6606L71.1606 23.1124ZM82.8701 20.9882C83.3041 21.5593 83.5211 22.3815 83.5211 23.4322C83.5211 23.9461 83.3498 24.4029 83.03 24.8141C82.6874 25.2823 82.1735 25.6363 81.4997 25.8762C80.8259 26.116 80.0265 26.2302 79.1014 26.2302C78.2906 26.2302 77.6282 26.1731 77.1257 26.0475C76.6232 25.9333 76.2006 25.7163 75.8809 25.4193C75.6182 25.7048 75.2642 25.9104 74.8302 26.0246C74.3848 26.1388 73.928 26.1959 73.4483 26.1959C73.4027 26.1959 73.3684 26.1388 73.3456 26.0246C73.3227 25.9104 73.3113 25.7734 73.3113 25.6021V24.1859C73.3113 24.0261 73.3227 23.889 73.3456 23.7748C73.3684 23.6606 73.4027 23.6035 73.4483 23.6035C74.1107 23.6035 74.5904 23.5464 74.8645 23.4322L74.7845 21.5478L76.5547 21.4336L76.5775 23.3637C76.6574 23.4094 76.7717 23.4436 76.9201 23.455C77.1942 22.9754 77.5368 22.4729 77.9479 21.9704C78.3591 21.4679 78.8273 21.0339 79.3755 20.6685C79.9237 20.303 80.4833 20.1203 81.0771 20.1203C81.8423 20.1203 82.4361 20.4172 82.8701 20.9882ZM81.5568 22.4843C81.3855 22.2902 81.1685 22.1874 80.9172 22.1874C80.586 22.1874 80.2206 22.3244 79.8095 22.5871C79.3983 22.8498 79.01 23.2038 78.6446 23.6606H79.1699C80.0265 23.6606 80.8944 23.5692 81.7852 23.3637C81.808 22.9754 81.7281 22.6785 81.5568 22.4843Z" fill="#0F3C6C"/>
<defs>
<filter id="filter0_d_356_3918" x="13.0776" y="0.426772" width="88.921" height="45.6012" filterUnits="userSpaceOnUse" color-interpolation-filters="sRGB">
<feFlood flood-opacity="0" result="BackgroundImageFix"/>
<feColorMatrix in="SourceAlpha" type="matrix" values="0 0 0 0 0 0 0 0 0 0 0 0 0 0 0 0 0 0 127 0" result="hardAlpha"/>
<feMorphology radius="0.571017" operator="dilate" in="SourceAlpha" result="effect1_dropShadow_356_3918"/>
<feOffset dx="0.571017" dy="1.14203"/>
<feGaussianBlur stdDeviation="0.428263"/>
<feComposite in2="hardAlpha" operator="out"/>
<feColorMatrix type="matrix" values="0 0 0 0 0 0 0 0 0 0 0 0 0 0 0 0 0 0 0.25 0"/>
<feBlend mode="normal" in2="BackgroundImageFix" result="effect1_dropShadow_356_3918"/>
<feBlend mode="normal" in="SourceGraphic" in2="effect1_dropShadow_356_3918" result="shape"/>
</filter>
</defs>
</svg>
